<svg width="111" height="34" viewBox="0 0 111 34" fill="none" xmlns="http://www.w3.org/2000/svg">
<path d="M34.8593 1.75122L33.7153 1.05622C32.3038 0.197244 30.4628 0.646256 29.6039 2.05967L21.8418 14.8311L25.5432 17.0801L34.8593 1.75122Z" fill="white"/>
<path d="M42.1742 11.2839L41.3738 10.2023C40.3918 8.87678 38.5216 8.59956 37.196 9.58154L22.5719 20.4223L25.0356 23.7469H21.0511V0H19.7548C18.0779 0 16.7191 1.35875 16.7191 3.03572V15.5105C15.0461 14.3215 13.0021 13.6226 10.7961 13.6226C5.14242 13.6226 0.542969 18.2221 0.542969 23.8757H4.66217C4.73245 29.4708 9.30261 34 14.9133 34C20.524 34 25.0844 29.4786 25.1625 23.8933L42.1723 11.2839H42.1742ZM14.9133 29.668C11.6472 29.668 8.99026 27.011 8.99026 23.7449H4.87691C4.94524 20.5394 7.57294 17.9527 10.7961 17.9527C14.0192 17.9527 16.7191 20.6097 16.7191 23.8757H20.8325C20.7641 27.0813 18.1364 29.668 14.9133 29.668Z" fill="white"/>
<path d="M34.8594 27.5829C34.8594 26.3804 35.0878 25.3047 35.5427 24.3559C35.9975 23.4071 36.6261 22.6594 37.4285 22.1108C38.2309 21.5642 39.1484 21.289 40.1812 21.289C40.9679 21.289 41.6922 21.4705 42.3559 21.8336C43.0197 22.1967 43.5214 22.6946 43.8591 23.3251V16.8008H48.2556V28.8324C48.2556 29.2482 48.3161 29.5371 48.441 29.6991C48.564 29.8612 48.7807 29.9568 49.0892 29.9881V33.6895C48.3337 33.8437 47.7167 33.9218 47.2385 33.9218C45.7411 33.9218 44.8782 33.3596 44.6459 32.2331L44.5541 31.7939C44.1383 32.5338 43.5741 33.0745 42.8655 33.4142C42.1568 33.7539 41.3993 33.9238 40.5989 33.9238C39.4881 33.9238 38.5003 33.6544 37.6374 33.1136C36.7726 32.5748 36.0951 31.8251 35.6012 30.8685C35.1073 29.9119 34.8613 28.8167 34.8613 27.5829H34.8594ZM43.8826 28.971V26.7962C43.6815 26.2574 43.3691 25.8201 42.9455 25.4882C42.5219 25.1563 42.0787 24.9904 41.616 24.9904C40.9835 24.9904 40.4545 25.252 40.0308 25.7771C39.6072 26.3023 39.3944 26.9348 39.3944 27.6747C39.3944 28.4146 39.6189 29.0432 40.066 29.5137C40.513 29.9842 41.0909 30.2184 41.8015 30.2184C42.6195 30.2184 43.3125 29.8026 43.8845 28.969L43.8826 28.971Z" fill="white"/>
<path d="M51.4258 20.5022V16.8008H55.8222V20.5022H51.4258ZM51.4258 33.6915V21.5213H55.8222V33.6915H51.4258Z" fill="white"/>
<path d="M61.5841 33.6917L57.4883 21.5215H61.9999L64.1747 29.7814L66.3729 21.5215H70.4686L66.3729 33.6917H61.5841Z" fill="white"/>
<path d="M77.7098 33.9239C76.2906 33.9239 75.0841 33.6389 74.0884 33.0688C73.0928 32.4988 72.3373 31.7432 71.8219 30.8003C71.3046 29.8593 71.0469 28.85 71.0469 27.7685C71.0469 26.5972 71.3026 25.5195 71.8102 24.5415C72.3197 23.5615 73.0674 22.7747 74.0553 22.1812C75.0431 21.5878 76.2613 21.291 77.7118 21.291C79.1623 21.291 80.3805 21.5838 81.3683 22.1695C82.3561 22.7552 83.1038 23.5263 83.6134 24.4829C84.1229 25.4395 84.3767 26.48 84.3767 27.6065C84.3767 28.0848 84.3376 28.5318 84.2615 28.9496H75.7225C75.7693 29.5977 76.0075 30.0643 76.4409 30.3494C76.8723 30.6344 77.3428 30.7769 77.8523 30.7769C78.3306 30.7769 78.7816 30.6695 79.2052 30.4528C79.6289 30.2361 79.91 29.9355 80.0506 29.5509L83.7754 30.6149C83.2815 31.5871 82.5182 32.3816 81.4854 32.9985C80.4508 33.6154 79.1955 33.9239 77.7137 33.9239H77.7098ZM75.6268 26.3102H79.6523C79.5898 25.7245 79.379 25.2618 79.0159 24.9222C78.6528 24.5825 78.194 24.4126 77.6396 24.4126C77.0851 24.4126 76.6283 24.5825 76.2749 24.9222C75.9196 25.2618 75.7029 25.7245 75.6268 26.3102Z" fill="white"/>
<path d="M87.8008 23.8174V17.498H90.4539C90.7389 17.498 91.0005 17.5566 91.2367 17.6757C91.4749 17.7948 91.6818 17.951 91.8595 18.1481C92.0371 18.3434 92.1738 18.5659 92.2694 18.8119C92.3651 19.0579 92.4119 19.3058 92.4119 19.5557C92.4119 19.9051 92.3338 20.239 92.1757 20.5533C92.0176 20.8676 91.797 21.1253 91.512 21.3225C91.2269 21.5216 90.8912 21.6212 90.5066 21.6212H88.8062V23.8194H87.8008V23.8174ZM88.8062 20.7368H90.4441C90.6276 20.7368 90.7916 20.6841 90.9341 20.5806C91.0766 20.4771 91.1898 20.3346 91.2718 20.1531C91.3538 19.9715 91.3968 19.7685 91.3968 19.544C91.3968 19.3195 91.3499 19.1086 91.2543 18.9349C91.1586 18.7592 91.0356 18.6225 90.8853 18.5249C90.735 18.4273 90.5729 18.3785 90.3992 18.3785H88.8062V20.7368Z" fill="white"/>
<path d="M93.5527 23.8174V17.498H96.3034C96.5885 17.498 96.8481 17.5566 97.0863 17.6757C97.3225 17.7948 97.5294 17.951 97.7051 18.1481C97.8808 18.3434 98.0175 18.5659 98.1151 18.8119C98.2127 19.0579 98.2615 19.3058 98.2615 19.5557C98.2615 19.8407 98.2108 20.1082 98.1112 20.362C98.0097 20.6138 97.8672 20.8325 97.6797 21.016C97.4923 21.1995 97.2756 21.3342 97.0258 21.4162L98.5134 23.8194H97.3908L96.0204 21.6212H94.5601V23.8194H93.5547L93.5527 23.8174ZM94.5581 20.7368H96.2937C96.4772 20.7368 96.6412 20.6821 96.7837 20.5728C96.9262 20.4635 97.0394 20.319 97.1214 20.1414C97.2034 19.9637 97.2464 19.7685 97.2464 19.5537C97.2464 19.339 97.1976 19.136 97.0999 18.9583C97.0023 18.7807 96.8793 18.6401 96.731 18.5347C96.5826 18.4312 96.4186 18.3785 96.241 18.3785H94.5581V20.7368Z" fill="white"/>
<path d="M102.239 23.8623C101.794 23.8623 101.388 23.7725 101.021 23.5948C100.652 23.4172 100.333 23.1751 100.064 22.8686C99.7947 22.5641 99.5858 22.2185 99.4413 21.8359C99.2968 21.4532 99.2227 21.0608 99.2227 20.6567C99.2227 20.2526 99.2988 19.8329 99.455 19.4503C99.6092 19.0676 99.8239 18.726 100.099 18.4273C100.374 18.1286 100.697 17.8904 101.06 17.7147C101.423 17.539 101.827 17.4512 102.266 17.4512C102.705 17.4512 103.133 17.5429 103.498 17.7264C103.863 17.9099 104.179 18.1559 104.447 18.4644C104.714 18.7728 104.919 19.1164 105.062 19.4971C105.204 19.8778 105.275 20.2682 105.275 20.6723C105.275 21.0765 105.2 21.4864 105.052 21.8691C104.904 22.2517 104.691 22.5933 104.416 22.892C104.138 23.1927 103.818 23.4269 103.455 23.6007C103.092 23.7744 102.686 23.8584 102.241 23.8584L102.239 23.8623ZM100.246 20.6567C100.246 20.9593 100.291 21.2483 100.384 21.5255C100.476 21.8007 100.609 22.0467 100.784 22.2634C100.96 22.4801 101.171 22.65 101.417 22.7749C101.663 22.8998 101.944 22.9623 102.258 22.9623C102.573 22.9623 102.864 22.8979 103.113 22.7671C103.363 22.6363 103.574 22.4606 103.746 22.238C103.918 22.0155 104.049 21.7675 104.138 21.4942C104.228 21.2209 104.273 20.9418 104.273 20.6567C104.273 20.3541 104.226 20.0672 104.131 19.7938C104.035 19.5205 103.898 19.2765 103.721 19.0598C103.543 18.8431 103.33 18.6733 103.084 18.5483C102.838 18.4234 102.563 18.3609 102.26 18.3609C101.934 18.3609 101.647 18.4273 101.401 18.5561C101.155 18.6869 100.946 18.8626 100.775 19.0813C100.603 19.3019 100.472 19.5479 100.382 19.8192C100.294 20.0925 100.25 20.3717 100.25 20.6567H100.246Z" fill="white"/>
<path d="M107.652 18.1777H108.484C108.923 18.1777 109.218 18.4402 109.218 18.8478C109.218 19.131 109.055 19.3566 108.808 19.4441L109.253 20.2845H108.868L108.463 19.5201H108V20.2845H107.655V18.1777H107.652ZM107.998 18.4794V19.2208H108.456C108.702 19.2208 108.861 19.0757 108.861 18.8501C108.861 18.6244 108.702 18.4794 108.456 18.4794H107.998Z" fill="white"/>
<path d="M108.352 21.0002C107.376 21.0002 106.584 20.2058 106.584 19.2296C106.584 18.2533 107.378 17.459 108.352 17.459C109.326 17.459 110.121 18.2533 110.121 19.2296C110.121 20.2058 109.326 21.0002 108.352 21.0002ZM108.352 17.5879C107.445 17.5879 106.708 18.3247 106.708 19.2319C106.708 20.1391 107.445 20.8759 108.352 20.8759C109.259 20.8759 109.996 20.1391 109.996 19.2319C109.996 18.3247 109.259 17.5879 108.352 17.5879Z" fill="white"/>
</svg>
