<svg width="12" height="14" viewBox="0 0 12 14" fill="none" xmlns="http://www.w3.org/2000/svg">
<path d="M6.04297 0C4.58481 0.00173014 3.18687 0.581748 2.15579 1.61282C1.12472 2.6439 0.544699 4.04184 0.542969 5.5C0.542969 10.2061 5.54297 13.7607 5.75586 13.9097C5.84005 13.9685 5.94027 14 6.04297 14C6.14566 14 6.24588 13.9685 6.33008 13.9097C6.54297 13.7607 11.543 10.2061 11.543 5.5C11.5412 4.04184 10.9612 2.6439 9.93015 1.61282C8.89907 0.581748 7.50113 0.00172997 6.04297 0ZM6.04333 3.50018C6.4389 3.50018 6.82558 3.61748 7.15448 3.83724C7.48337 4.057 7.73972 4.36936 7.89109 4.73481C8.04247 5.10027 8.08208 5.5024 8.00491 5.89036C7.92774 6.27832 7.73725 6.63469 7.45755 6.91439C7.17784 7.1941 6.82148 7.38458 6.43352 7.46175C6.04555 7.53892 5.64342 7.49932 5.27797 7.34794C4.91252 7.19657 4.60016 6.94022 4.3804 6.61132C4.16063 6.28242 4.04333 5.89574 4.04333 5.50018C4.04333 5.23754 4.09505 4.97746 4.19556 4.73481C4.29607 4.49215 4.44339 4.27167 4.6291 4.08595C4.81482 3.90023 5.03531 3.75291 5.27796 3.65241C5.52061 3.5519 5.78069 3.50017 6.04333 3.50018Z" fill="white"/>
</svg>
