<svg width="13" height="14" viewBox="0 0 13 14" fill="none" xmlns="http://www.w3.org/2000/svg">
<path d="M6.54225 10.4014C8.98385 10.4014 11.1189 11.4514 12.2803 13.0178L11.0523 13.5987C10.1072 12.4785 8.44052 11.7347 6.54225 11.7347C4.64397 11.7347 2.97733 12.4785 2.03218 13.5987L0.804688 13.0172C1.96616 11.4512 4.10096 10.4014 6.54225 10.4014ZM6.54225 0.401367C8.38319 0.401367 9.87559 1.89375 9.87559 3.7347V5.7347C9.87559 7.57563 8.38319 9.06803 6.54225 9.06803C4.7013 9.06803 3.20892 7.57563 3.20892 5.7347V3.7347C3.20892 1.89375 4.7013 0.401367 6.54225 0.401367Z" fill="#F6F6F6"/>
</svg>
